HIERARCHY
ROOT Bip001_Pelvis
{
  OFFSET 100.689 97.403 9.53741
  CHANNELS 6 Xposition Yposition Zposition Zrotation Xrotation Yrotation
  JOINT Bip001_Spine
  {
    OFFSET 1.44608e-005 10.4157 -0.0118244
    CHANNELS 6 Xposition Yposition Zposition Zrotation Xrotation Yrotation
    JOINT Bip001_L_Thigh
    {
      OFFSET 11.2582 -10.4157 0.0118432
      CHANNELS 6 Xposition Yposition Zposition Zrotation Xrotation Yrotation
      JOINT Bip001_L_Calf
      {
        OFFSET -0.720717 -44.8687 0.366937
        CHANNELS 6 Xposition Yposition Zposition Zrotation Xrotation Yrotation
        JOINT Bip001_L_Foot
        {
          OFFSET -0.664439 -41.3745 -3.62995
          CHANNELS 6 Xposition Yposition Zposition Zrotation Xrotation Yrotation
          JOINT Bip001_L_Toe0
          {
            OFFSET 0.0541048 -10.4146 13.4033
            CHANNELS 6 Xposition Yposition Zposition Zrotation Xrotation Yrotation
            End Site
            {
              OFFSET -1.04503e-005 0 7.70137
            }
          }
        }
      }
    }
    JOINT Bip001_R_Thigh
    {
      OFFSET -11.2582 -10.4156 0.0118122
      CHANNELS 6 Xposition Yposition Zposition Zrotation Xrotation Yrotation
      JOINT Bip001_R_Calf
      {
        OFFSET 0.72059 -44.8687 0.36676
        CHANNELS 6 Xposition Yposition Zposition Zrotation Xrotation Yrotation
        JOINT Bip001_R_Foot
        {
          OFFSET 0.664321 -41.3745 -3.62979
          CHANNELS 6 Xposition Yposition Zposition Zrotation Xrotation Yrotation
          JOINT Bip001_R_Toe0
          {
            OFFSET -0.05417 -10.4146 13.4033
            CHANNELS 6 Xposition Yposition Zposition Zrotation Xrotation Yrotation
            End Site
            {
              OFFSET -1.04873e-005 0 7.70137
            }
          }
        }
      }
    }
    JOINT Bip001_Spine1
    {
      OFFSET 1.90638e-005 14.8539 1.10727
      CHANNELS 6 Xposition Yposition Zposition Zrotation Xrotation Yrotation
      JOINT Bip001_Spine2
      {
        OFFSET 2.28934e-005 14.7848 -1.7233
        CHANNELS 6 Xposition Yposition Zposition Zrotation Xrotation Yrotation
        JOINT Bip001_Neck
        {
          OFFSET 2.24514e-005 15.6905 -0.498826
          CHANNELS 6 Xposition Yposition Zposition Zrotation Xrotation Yrotation
          JOINT Bip001_L_Clavicle
          {
            OFFSET 6.17691 -0.000591152 0.00852867
            CHANNELS 6 Xposition Yposition Zposition Zrotation Xrotation Yrotation
            JOINT Bip001_L_UpperArm
            {
              OFFSET 11.773 -0.0611878 0.00197697
              CHANNELS 6 Xposition Yposition Zposition Zrotation Xrotation Yrotation
              JOINT Bip001_L_Forearm
              {
                OFFSET 26.4515 0.0817569 -2.19579
                CHANNELS 6 Xposition Yposition Zposition Zrotation Xrotation Yrotation
                JOINT Bip001_L_Hand
                {
                  OFFSET 32.8677 0.156745 1.67111
                  CHANNELS 6 Xposition Yposition Zposition Zrotation Xrotation Yrotation
                  JOINT Bip001_L_Finger0
                  {
                    OFFSET 6.16266 -2.25227 6.01673
                    CHANNELS 6 Xposition Yposition Zposition Zrotation Xrotation Yrotation
                    End Site
                    {
                      OFFSET 4.30498 -1.46663 0.618147
                    }
                  }
                  JOINT Bip001_L_Finger1
                  {
                    OFFSET 11.2957 -0.718377 -0.201963
                    CHANNELS 6 Xposition Yposition Zposition Zrotation Xrotation Yrotation
                    End Site
                    {
                      OFFSET 6.31951 -0.405165 -0.0802301
                    }
                  }
                }
              }
            }
          }
          JOINT Bip001_R_Clavicle
          {
            OFFSET -6.17691 -0.000574028 0.00851165
            CHANNELS 6 Xposition Yposition Zposition Zrotation Xrotation Yrotation
            JOINT Bip001_R_UpperArm
            {
              OFFSET -11.773 -0.0611516 0.00194365
              CHANNELS 6 Xposition Yposition Zposition Zrotation Xrotation Yrotation
              JOINT Bip001_R_Forearm
              {
                OFFSET -26.4514 0.0822337 -2.19736
                CHANNELS 6 Xposition Yposition Zposition Zrotation Xrotation Yrotation
                JOINT Bip001_R_Hand
                {
                  OFFSET -32.8677 0.156817 1.67144
                  CHANNELS 6 Xposition Yposition Zposition Zrotation Xrotation Yrotation
                  JOINT Bip001_R_Finger0
                  {
                    OFFSET -6.16268 -2.25225 6.01671
                    CHANNELS 6 Xposition Yposition Zposition Zrotation Xrotation Yrotation
                    End Site
                    {
                      OFFSET -4.30498 -1.46662 0.618135
                    }
                  }
                  JOINT Bip001_R_Finger1
                  {
                    OFFSET -11.2957 -0.718347 -0.201994
                    CHANNELS 6 Xposition Yposition Zposition Zrotation Xrotation Yrotation
                    End Site
                    {
                      OFFSET -6.3195 -0.405147 -0.0802477
                    }
                  }
                }
              }
            }
          }
          JOINT Bip001_Head
          {
            OFFSET 1.11782e-005 11.4912 2.09908
            CHANNELS 6 Xposition Yposition Zposition Zrotation Xrotation Yrotation
            End Site
            {
              OFFSET 2.95144e-005 21.2823 -2.83069e-005
            }
          }
        }
      }
    }
  }
}
MOTION
Frames:	4
Frame Time:	0.0333333
-25.0054 95.7722 12.7077 -0.876846 0.283284 -81.2219 1.44608e-005 10.4157 -0.0118244 -0.576589 1.09576 -1.26662 11.2582 -10.4157 0.0118432 -1.72003 -3.17996 0.11029 -0.720717 -44.8687 0.366937 -2.03169 12.7308 -1.0729 -0.664439 -41.3745 -3.62995 2.23273 -8.70214 -3.15441 0.0541047 -10.4146 13.4033 -16.2194 20.1096 6.75688 -11.2582 -10.4156 0.0118122 -1.58783 -24.2111 -16.2316 0.72059 -44.8687 0.36676 -11.6374 39.9781 28.8519 0.664321 -41.3745 -3.62979 -0.836646 -6.4914 -11.2151 -0.05417 -10.4146 13.4033 25.2639 16.9603 -12.4627 1.90638e-005 14.8539 1.10727 -1.12912 2.20396 -2.52287 2.28934e-005 14.7848 -1.7233 -1.12912 2.20396 -2.52286 2.24514e-005 15.6905 -0.498826 -1.55909 1.53245 0.308238 6.17691 -0.000591152 0.00852867 -31.0579 -1.32492 2.8919 11.773 -0.0611878 0.00197697 0.393243 58.5965 -55.1092 26.4515 0.0817569 -2.19579 12.2911 -31.154 -6.43144 32.8677 0.156745 1.67111 14.503 -1.0329 -6.62776 6.16267 -2.25227 6.01673 -4.77083e-015 0 -3.18055e-015 11.2957 -0.718377 -0.201963 -6.36111e-015 0 -0 -6.17691 -0.000574028 0.00851165 27.2165 -1.38159 -2.69334 -11.773 -0.0611516 0.00194365 64.6171 61.5169 -4.66014 -26.4514 0.0822337 -2.19736 -8.20873 -25.8602 2.60544 -32.8677 0.156817 1.67144 -11.8604 -0.13507 2.66499 -6.16268 -2.25225 6.01672 1.59028e-015 -3.18055e-015 -0 -11.2957 -0.718346 -0.201994 -0 -3.18056e-015 -0 1.11782e-005 11.4912 2.09908 2.70047 -6.55606 -0.633878 
-28.481 95.4949 12.8551 -0.62513 0.51572 -79.8266 1.44608e-005 10.4157 -0.0118244 -0.550806 1.14886 -1.48699 11.2582 -10.4157 0.0118432 -1.2813 -1.61234 -0.747139 -0.720717 -44.8687 0.366937 -2.13747 13.068 -1.16434 -0.664439 -41.3745 -3.62995 2.26084 -9.1315 -2.70272 0.0541047 -10.4146 13.4033 -13.1053 17.039 4.49612 -11.2582 -10.4156 0.0118122 -1.11519 -24.1636 -17.5613 0.72059 -44.8687 0.36676 -8.51323 27.3866 21.6998 0.664321 -41.3745 -3.62979 -0.823179 -3.00288 -4.96217 -0.05417 -10.4146 13.4033 20.5374 12.8756 -7.67071 1.90638e-005 14.8539 1.10727 -1.07193 2.31158 -2.96373 2.28934e-005 14.7848 -1.7233 -1.07193 2.31159 -2.96376 2.24514e-005 15.6905 -0.498826 -1.09851 1.49984 0.222079 6.17691 -0.000591152 0.00852867 -31.3421 -1.30267 2.89004 11.773 -0.0611878 0.00197697 -2.47021 55.2619 -52.5914 26.4515 0.0817568 -2.19579 12.851 -28.0562 -10.4207 32.8677 0.156744 1.67111 15.508 -1.03525 -6.18848 6.16266 -2.25226 6.01673 -1.59028e-015 -3.18055e-015 1.27222e-014 11.2957 -0.718377 -0.201963 -3.18055e-015 0 1.11319e-014 -6.17691 -0.000574028 0.00851165 27.0602 -1.34743 -2.7411 -11.773 -0.0611516 0.00194365 64.5935 59.0678 -5.26915 -26.4514 0.0822337 -2.19736 -7.5197 -24.2633 3.78548 -32.8677 0.156817 1.67144 -12.4709 -0.130453 2.56556 -6.16268 -2.25225 6.01672 1.59028e-015 -6.36111e-015 -0 -11.2957 -0.718345 -0.201994 1.59028e-015 -9.54167e-015 -0 1.11782e-005 11.4912 2.09908 2.63202 -6.80429 -0.558441 
-32.126 95.0921 13.0406 -0.471506 0.412741 -78.8823 1.44608e-005 10.4157 -0.0118244 -0.580494 1.18087 -1.60309 11.2582 -10.4157 0.0118432 -1.10752 0.724489 -0.394758 -0.720717 -44.8687 0.366937 -1.92282 12.5852 -0.919059 -0.664439 -41.3745 -3.62995 2.50599 -9.22963 -3.15596 0.0541047 -10.4146 13.4033 -9.8235 14.5075 1.88118 -11.2582 -10.4156 0.0118122 -0.465858 -22.2301 -19.1759 0.72059 -44.8687 0.36676 -5.62846 12.055 13.1251 0.664321 -41.3745 -3.62979 -2.00393 0.496229 2.91472 -0.05417 -10.4146 13.4033 19.833 12.1174 -4.69701 1.90638e-005 14.8539 1.10727 -1.12808 2.37746 -3.1951 2.28934e-005 14.7848 -1.7233 -1.12808 2.37746 -3.1951 2.24514e-005 15.6905 -0.498826 -1.01657 1.3052 0.146684 6.17691 -0.000591152 0.00852867 -31.1693 -1.11968 2.9086 11.773 -0.0611878 0.00197697 -3.29758 53.3658 -52.1714 26.4515 0.0817568 -2.19579 11.8043 -26.6675 -11.118 32.8677 0.156744 1.67112 17.341 -1.50489 -8.31596 6.16267 -2.25226 6.01673 1.59028e-015 3.18055e-015 1.59028e-015 11.2957 -0.718376 -0.201963 0 3.18056e-015 -0 -6.17691 -0.000574028 0.00851165 26.9271 -1.14977 -2.79273 -11.773 -0.0611516 0.00194365 66.283 59.1112 -6.73704 -26.4514 0.0822337 -2.19736 -8.05086 -25.2963 3.64603 -32.8677 0.156817 1.67144 -12.346 -0.146488 2.69416 -6.16268 -2.25225 6.01672 4.77083e-015 -3.18055e-015 -1.59028e-015 -11.2957 -0.718346 -0.201994 1.59028e-015 -6.36111e-015 -4.77083e-015 1.11782e-005 11.4912 2.09908 2.72882 -6.91944 -0.619775 
-35.8047 94.5947 13.2192 -0.0129356 0.286454 -78.1291 1.44608e-005 10.4157 -0.0118244 -0.614527 1.11474 -1.69178 11.2582 -10.4157 0.0118432 -0.756731 2.54648 0.817248 -0.720717 -44.8687 0.366937 -2.1896 12.9418 -3.43313 -0.664439 -41.3745 -3.62995 3.04945 -10.9008 -2.55196 0.0541047 -10.4146 13.4033 -11.8632 13.5374 2.76323 -11.2582 -10.4156 0.0118122 0.657005 -22.6464 -22.9771 0.72059 -44.8687 0.36676 -5.37831 1.90754 10.3646 0.664321 -41.3745 -3.62979 -1.39532 2.2527 7.83055 -0.05417 -10.4146 13.4033 22.1316 8.9954 -4.09117 1.90638e-005 14.8539 1.10727 -1.19621 2.24707 -3.37241 2.28934e-005 14.7848 -1.7233 -1.19621 2.24708 -3.37239 2.24514e-005 15.6905 -0.498826 -1.0669 0.914689 0.051782 6.17691 -0.000591152 0.00852867 -31.0694 -0.845576 3.21967 11.773 -0.0611878 0.00197697 -3.86137 52.2368 -51.6011 26.4515 0.0817568 -2.19579 12.1733 -25.6568 -13.4266 32.8677 0.156744 1.67112 17.9319 -1.44079 -7.55895 6.16267 -2.25226 6.01673 2.64834e-031 9.54166e-015 -1.59028e-015 11.2957 -0.718376 -0.201963 -1.76556e-031 6.36111e-015 1.59028e-015 -6.17691 -0.000574028 0.00851165 26.9665 -0.791247 -2.98677 -11.773 -0.0611516 0.00194365 66.6503 57.8469 -7.10869 -26.4514 0.0822337 -2.19736 -7.93448 -24.5828 4.00242 -32.8677 0.156817 1.67144 -12.4427 -0.169306 2.98479 -6.16268 -2.25225 6.01672 6.36111e-015 0 1.59028e-015 -11.2957 -0.718345 -0.201994 6.36111e-015 0 4.77083e-015 1.11782e-005 11.4912 2.09908 2.74495 -7.02923 -0.726628 
